<?xml version="1.0" standalone="no"?>
<!DOCTYPE svg PUBLIC "-//W3C//DTD SVG 20010904//EN"
 "http://www.w3.org/TR/2001/REC-SVG-20010904/DTD/svg10.dtd">
<svg version="1.0" xmlns="http://www.w3.org/2000/svg"
 width="365.000000pt" height="365.000000pt" viewBox="0 0 365.000000 365.000000"
 preserveAspectRatio="xMidYMid meet">
<metadata>
Created by potrace 1.11, written by Peter Selinger 2001-2013
</metadata>
<g transform="translate(0.000000,365.000000) scale(0.100000,-0.100000)"
fill="#000000" stroke="none">
<path d="M2015 2906 c-154 -49 -245 -163 -297 -374 -17 -69 -22 -118 -23 -232
0 -133 2 -149 24 -193 13 -26 36 -58 52 -71 33 -28 115 -48 159 -40 36 8 36 5
9 -48 -60 -117 -90 -259 -90 -424 0 -141 10 -190 48 -235 35 -41 79 -59 146
-59 124 0 247 60 368 180 143 142 198 283 178 457 -17 158 -62 255 -162 355
-46 46 -49 52 -45 91 3 23 17 83 32 132 24 78 27 101 22 175 -8 130 -44 225
-100 260 -57 36 -243 51 -321 26z m202 -170 c49 -25 64 -51 70 -114 11 -120
-57 -265 -173 -371 -104 -95 -203 -118 -248 -58 -18 25 -21 41 -19 125 2 103
28 225 63 297 29 61 87 123 123 135 42 12 149 5 184 -14z m128 -660 c57 -57
101 -199 92 -300 -15 -166 -194 -351 -353 -364 -81 -7 -84 -2 -84 142 0 139
19 209 84 309 43 68 202 237 223 237 8 0 25 -11 38 -24z"/>
<path d="M963 2708 c-25 -12 -43 -62 -43 -120 0 -23 -21 -86 -56 -165 -92
-212 -200 -405 -355 -634 -93 -137 -99 -166 -46 -217 29 -28 40 -32 87 -32 36
0 85 11 140 31 210 76 248 88 295 91 l50 3 11 -70 c6 -38 17 -126 25 -194 15
-146 29 -171 88 -171 58 0 75 26 80 121 2 43 -4 118 -12 166 -9 49 -18 111
-21 139 l-6 52 75 11 c42 6 130 11 196 11 66 0 129 4 139 10 50 27 44 128 -11
174 -40 34 -80 34 -229 -4 -65 -16 -134 -30 -153 -30 -42 0 -35 -42 -77 433
-17 186 -35 349 -40 362 -5 13 -18 29 -29 34 -25 14 -79 13 -108 -1z m27 -608
c11 -107 23 -209 26 -227 6 -31 5 -32 -48 -48 -66 -20 -246 -50 -254 -43 -3 3
52 121 123 261 70 141 128 255 130 254 1 -1 11 -90 23 -197z"/>
<path d="M2912 1768 c-46 -16 -90 -62 -121 -128 -22 -48 -25 -68 -25 -155 0
-120 15 -175 57 -222 71 -77 217 -55 315 46 103 109 142 290 81 390 -29 47
-95 74 -194 77 -44 2 -95 -2 -113 -8z"/>
</g>
</svg>
